<svg version="1.1" preserveAspectRatio="none" xmlns="http://www.w3.org/2000/svg" width="500" height="500" viewBox="0 0 500 500"><rect width="100%" height="100%" fill="#1C1C1C" fill-opacity="1"/><svg viewBox="82.1934 59.6969 397.3972 277.9031" width="333" height="232.86961332389862" x="83.5px" y="133.5652px" xmlns="http://www.w3.org/2000/svg" xmlns:xlink="http://www.w3.org/1999/xlink" preserveAspectRatio="none"><defs></defs><style>.companyName {fill:#EDEDED;fill-opacity:1;}.icon1 {fill:#EDEDED;fill-opacity:1;}.icon2 {fill:#F35F40;fill-opacity:1;}.icon3 {fill:#B2B2B1;fill-opacity:1;}.icon3-str {stroke:#B2B2B1;stroke-opacity:1;}.text {fill:#EDEDED;fill-opacity:1;}</style><g opacity="1" transform="rotate(0 201.4126 59.6969)">
<svg width="158.9589" height="175.1031" x="201.4126" y="59.6969" version="1.1" preserveAspectRatio="none" viewBox="36 29.500064849853516 128 140.9999542236328">
  <g transform="matrix(1 0 0 1 0 0)"><g><path d="M162.452 76.89l-60-46.55a3.999 3.999 0 0 0-4.904 0l-60 46.55A3.997 3.997 0 0 0 36 80.05v73.15c0 9.539 7.775 17.3 17.333 17.3h93.334c9.558 0 17.333-7.761 17.333-17.3V80.05a3.997 3.997 0 0 0-1.548-3.16zM116 162.5H84V104h32v58.5zm40-9.3c0 5.128-4.187 9.3-9.333 9.3H124V100a4 4 0 0 0-4-4H80a4 4 0 0 0-4 4v62.5H53.333c-5.146 0-9.333-4.172-9.333-9.3V82.009l56-43.446 56 43.446V153.2z" data-color="1" class="icon1"></path></g></g>
</svg>
</g><g opacity="1" transform="rotate(0 194.4182 316.8)">
<svg width="172.9476" height="20.8" x="194.4182" y="316.8" version="1.1" preserveAspectRatio="none" viewBox="4.56 -29.68 248.39999999999998 29.88">
  <g transform="matrix(1 0 0 1 0 0)" class="text"><path id="id-6izo4zJp11" d="M26.92 0L23.68 0L17.28-9Q16.20-8.88 15.04-8.88L15.04-8.88L7.52-8.88L7.52 0L4.56 0L4.56-28L15.04-28Q20.40-28 23.44-25.44Q26.48-22.88 26.48-18.40L26.48-18.40Q26.48-15.12 24.82-12.86Q23.16-10.60 20.08-9.60L20.08-9.60L26.92 0ZM14.96-11.40Q19.12-11.40 21.32-13.24Q23.52-15.08 23.52-18.40L23.52-18.40Q23.52-21.80 21.32-23.62Q19.12-25.44 14.96-25.44L14.96-25.44L7.52-25.44L7.52-11.40L14.96-11.40Z M54.44-10.52L54.40-9.64L36.80-9.64Q37.04-6.36 39.32-4.34Q41.60-2.32 45.08-2.32L45.08-2.32Q47.04-2.32 48.68-3.02Q50.32-3.72 51.52-5.08L51.52-5.08L53.12-3.24Q51.72-1.56 49.62-0.68Q47.52 0.20 45.00 0.20L45.00 0.20Q41.76 0.20 39.26-1.18Q36.76-2.56 35.36-5Q33.96-7.44 33.96-10.52L33.96-10.52Q33.96-13.60 35.30-16.04Q36.64-18.48 38.98-19.84Q41.32-21.20 44.24-21.20L44.24-21.20Q47.16-21.20 49.48-19.84Q51.80-18.48 53.12-16.06Q54.44-13.64 54.44-10.52L54.44-10.52ZM44.24-18.76Q41.20-18.76 39.14-16.82Q37.08-14.88 36.80-11.76L36.80-11.76L51.72-11.76Q51.44-14.88 49.38-16.82Q47.32-18.76 44.24-18.76L44.24-18.76Z M70.20-21.20Q74.32-21.20 76.52-19.14Q78.72-17.08 78.72-13.04L78.72-13.04L78.72 0L76 0L76-3.28Q75.04-1.64 73.18-0.72Q71.32 0.20 68.76 0.20L68.76 0.20Q65.24 0.20 63.16-1.48Q61.08-3.16 61.08-5.92L61.08-5.92Q61.08-8.60 63.02-10.24Q64.96-11.88 69.20-11.88L69.20-11.88L75.88-11.88L75.88-13.16Q75.88-15.88 74.36-17.30Q72.84-18.72 69.92-18.72L69.92-18.72Q67.92-18.72 66.08-18.06Q64.24-17.40 62.92-16.24L62.92-16.24L61.64-18.36Q63.24-19.72 65.48-20.46Q67.72-21.20 70.20-21.20L70.20-21.20ZM69.20-2.04Q71.60-2.04 73.32-3.14Q75.04-4.24 75.88-6.32L75.88-6.32L75.88-9.76L69.28-9.76Q63.88-9.76 63.88-6L63.88-6Q63.88-4.16 65.28-3.10Q66.68-2.04 69.20-2.04L69.20-2.04Z M89.64 0L89.64-29.68L92.48-29.68L92.48 0L89.64 0Z M120.84-2.56L137.68-2.56L137.68 0L117.88 0L117.88-28L137.08-28L137.08-25.44L120.84-25.44L120.84-15.48L135.32-15.48L135.32-12.96L120.84-12.96L120.84-2.56Z M152.56 0.20Q150 0.20 147.66-0.54Q145.32-1.28 144-2.40L144-2.40L145.28-4.64Q146.60-3.60 148.60-2.94Q150.60-2.28 152.76-2.28L152.76-2.28Q155.64-2.28 157.02-3.18Q158.40-4.08 158.40-5.72L158.40-5.72Q158.40-6.88 157.64-7.54Q156.88-8.20 155.72-8.54Q154.56-8.88 152.64-9.20L152.64-9.20Q150.08-9.68 148.52-10.18Q146.96-10.68 145.86-11.88Q144.76-13.08 144.76-15.20L144.76-15.20Q144.76-17.84 146.96-19.52Q149.16-21.20 153.08-21.20L153.08-21.20Q155.12-21.20 157.16-20.66Q159.20-20.12 160.52-19.24L160.52-19.24L159.28-16.96Q156.68-18.76 153.08-18.76L153.08-18.76Q150.36-18.76 148.98-17.80Q147.60-16.84 147.60-15.28L147.60-15.28Q147.60-14.08 148.38-13.36Q149.16-12.64 150.32-12.30Q151.48-11.96 153.52-11.60L153.52-11.60Q156.04-11.12 157.56-10.64Q159.08-10.16 160.16-9Q161.24-7.84 161.24-5.80L161.24-5.80Q161.24-3.04 158.94-1.42Q156.64 0.20 152.56 0.20L152.56 0.20Z M179.76-3.32L180.76-1.28Q179.96-0.56 178.78-0.18Q177.60 0.20 176.32 0.20L176.32 0.20Q173.36 0.20 171.76-1.40Q170.16-3 170.16-5.92L170.16-5.92L170.16-18.64L166.40-18.64L166.40-21.04L170.16-21.04L170.16-25.64L173-25.64L173-21.04L179.40-21.04L179.40-18.64L173-18.64L173-6.08Q173-4.20 173.94-3.22Q174.88-2.24 176.64-2.24L176.64-2.24Q177.52-2.24 178.34-2.52Q179.16-2.80 179.76-3.32L179.76-3.32Z M196.48-21.20Q200.60-21.20 202.80-19.14Q205-17.08 205-13.04L205-13.04L205 0L202.28 0L202.28-3.28Q201.32-1.64 199.46-0.72Q197.60 0.20 195.04 0.20L195.04 0.20Q191.52 0.20 189.44-1.48Q187.36-3.16 187.36-5.92L187.36-5.92Q187.36-8.60 189.30-10.24Q191.24-11.88 195.48-11.88L195.48-11.88L202.16-11.88L202.16-13.16Q202.16-15.88 200.64-17.30Q199.12-18.72 196.20-18.72L196.20-18.72Q194.20-18.72 192.36-18.06Q190.52-17.40 189.20-16.24L189.20-16.24L187.92-18.36Q189.52-19.72 191.76-20.46Q194-21.20 196.48-21.20L196.48-21.20ZM195.48-2.04Q197.88-2.04 199.60-3.14Q201.32-4.24 202.16-6.32L202.16-6.32L202.16-9.76L195.56-9.76Q190.16-9.76 190.16-6L190.16-6Q190.16-4.16 191.56-3.10Q192.96-2.04 195.48-2.04L195.48-2.04Z M226.00-3.32L227.00-1.28Q226.20-0.56 225.02-0.18Q223.84 0.20 222.56 0.20L222.56 0.20Q219.60 0.20 218.00-1.40Q216.40-3 216.40-5.92L216.40-5.92L216.40-18.64L212.64-18.64L212.64-21.04L216.40-21.04L216.40-25.64L219.24-25.64L219.24-21.04L225.64-21.04L225.64-18.64L219.24-18.64L219.24-6.08Q219.24-4.20 220.18-3.22Q221.12-2.24 222.88-2.24L222.88-2.24Q223.76-2.24 224.58-2.52Q225.40-2.80 226.00-3.32L226.00-3.32Z M252.96-10.52L252.92-9.64L235.32-9.64Q235.56-6.36 237.84-4.34Q240.12-2.32 243.60-2.32L243.60-2.32Q245.56-2.32 247.20-3.02Q248.84-3.72 250.04-5.08L250.04-5.08L251.64-3.24Q250.24-1.56 248.14-0.68Q246.04 0.20 243.52 0.20L243.52 0.20Q240.28 0.20 237.78-1.18Q235.28-2.56 233.88-5Q232.48-7.44 232.48-10.52L232.48-10.52Q232.48-13.60 233.82-16.04Q235.16-18.48 237.50-19.84Q239.84-21.20 242.76-21.20L242.76-21.20Q245.68-21.20 248-19.84Q250.32-18.48 251.64-16.06Q252.96-13.64 252.96-10.52L252.96-10.52ZM242.76-18.76Q239.72-18.76 237.66-16.82Q235.60-14.88 235.32-11.76L235.32-11.76L250.24-11.76Q249.96-14.88 247.90-16.82Q245.84-18.76 242.76-18.76L242.76-18.76Z"/></g>
</svg>
</g><g opacity="1" transform="rotate(0 82.1934 260.8)">
<svg width="397.3972" height="40" x="82.1934" y="260.8" version="1.1" preserveAspectRatio="none" viewBox="1.52 -34.68 347.72 35">
  <g transform="matrix(1 0 0 1 0 0)" class="companyName"><path id="id-D6z1nYkh18" d="M1.52 0L1.52-34.36L12.08-34.36Q14.60-34.36 15.98-33.22Q17.36-32.08 17.84-30.02Q18.32-27.96 18.32-24.76L18.32-24.76Q18.32-21.84 17.56-20.20Q16.80-18.56 14.92-17.92L14.92-17.92Q16.48-17.60 17.18-16.36Q17.88-15.12 17.88-13L17.88-13L17.80 0L11.08 0L11.08-13.44Q11.08-14.88 10.52-15.28Q9.96-15.68 8.48-15.68L8.48-15.68L8.48 0L1.52 0ZM8.52-21.64L10.16-21.64Q11.60-21.64 11.60-24.76L11.60-24.76Q11.60-26.12 11.48-26.80Q11.36-27.48 11.04-27.74Q10.72-28 10.12-28L10.12-28L8.52-28L8.52-21.64Z M37.60 0L23.40 0L23.40-34.36L37.16-34.36L37.16-27.72L30.40-27.72L30.40-21.04L36.88-21.04L36.88-14.56L30.40-14.56L30.40-6.68L37.60-6.68L37.60 0Z M49.52 0L42.68 0L42.68-34.36L49.52-34.36L49.52-22.08L52.76-22.08L52.76-34.36L59.60-34.36L59.60 0L52.76 0L52.76-15.60L49.52-15.60L49.52 0Z M71.64 0L65.44 0L65.44-34.36L75.92-34.36L78.80-13.40L81.68-34.36L92.24-34.36L92.24 0L85.96 0L85.96-24.76L82 0L75.84 0L71.64-24.76L71.64 0Z M103.84 0L97.16 0L100.48-34.36L112.12-34.36L115.40 0L108.88 0L108.40-5.56L104.24-5.56L103.84 0ZM106.04-28.52L104.76-11.04L107.88-11.04L106.36-28.52L106.04-28.52Z M130.12 0L123.24 0L123.24-27.76L119.16-27.76L119.16-34.36L134.20-34.36L134.20-27.76L130.12-27.76L130.12 0Z M151.08 0L151.08-34.36L160.16-34.36Q164.28-34.36 166.04-31.70Q167.80-29.04 167.80-23.92L167.80-23.92Q167.80-18.80 166.24-16.20Q164.68-13.60 160.64-13.60L160.64-13.60L157.84-13.60L157.84 0L151.08 0ZM157.84-19.80L158.24-19.80Q159.48-19.80 160.06-20.26Q160.64-20.72 160.82-21.58Q161-22.44 161-24.04L161-24.04Q161-26.20 160.52-27.16Q160.04-28.12 158.60-28.12L158.60-28.12L157.84-28.12L157.84-19.80Z M172.76 0L172.76-34.36L183.32-34.36Q185.84-34.36 187.22-33.22Q188.60-32.08 189.08-30.02Q189.56-27.96 189.56-24.76L189.56-24.76Q189.56-21.84 188.80-20.20Q188.04-18.56 186.16-17.92L186.16-17.92Q187.72-17.60 188.42-16.36Q189.12-15.12 189.12-13L189.12-13L189.04 0L182.32 0L182.32-13.44Q182.32-14.88 181.76-15.28Q181.20-15.68 179.72-15.68L179.72-15.68L179.72 0L172.76 0ZM179.76-21.64L181.40-21.64Q182.84-21.64 182.84-24.76L182.84-24.76Q182.84-26.12 182.72-26.80Q182.60-27.48 182.28-27.74Q181.96-28 181.36-28L181.36-28L179.76-28L179.76-21.64Z M202.84 0.32Q198.68 0.32 196.52-2.22Q194.36-4.76 194.36-9.36L194.36-9.36L194.36-25.72Q194.36-30.16 196.52-32.42Q198.68-34.68 202.84-34.68L202.84-34.68Q207.00-34.68 209.16-32.42Q211.32-30.16 211.32-25.72L211.32-25.72L211.32-9.36Q211.32-4.72 209.16-2.20Q207.00 0.32 202.84 0.32L202.84 0.32ZM202.84-6Q203.76-6 204.08-6.80Q204.40-7.60 204.40-9.04L204.40-9.04L204.40-25.84Q204.40-26.96 204.10-27.66Q203.80-28.36 202.88-28.36L202.88-28.36Q201.16-28.36 201.16-25.76L201.16-25.76L201.16-9Q201.16-7.52 201.52-6.76Q201.88-6 202.84-6L202.84-6Z M216.88 0L216.88-34.36L225.96-34.36Q230.08-34.36 231.84-31.70Q233.60-29.04 233.60-23.92L233.60-23.92Q233.60-18.80 232.04-16.20Q230.48-13.60 226.44-13.60L226.44-13.60L223.64-13.60L223.64 0L216.88 0ZM223.64-19.80L224.04-19.80Q225.28-19.80 225.86-20.26Q226.44-20.72 226.62-21.58Q226.80-22.44 226.80-24.04L226.80-24.04Q226.80-26.20 226.32-27.16Q225.84-28.12 224.40-28.12L224.40-28.12L223.64-28.12L223.64-19.80Z M252.76 0L238.56 0L238.56-34.36L252.32-34.36L252.32-27.72L245.56-27.72L245.56-21.04L252.04-21.04L252.04-14.56L245.56-14.56L245.56-6.68L252.76-6.68L252.76 0Z M257.84 0L257.84-34.36L268.40-34.36Q270.92-34.36 272.30-33.22Q273.68-32.08 274.16-30.02Q274.64-27.96 274.64-24.76L274.64-24.76Q274.64-21.84 273.88-20.20Q273.12-18.56 271.24-17.92L271.24-17.92Q272.80-17.60 273.50-16.36Q274.20-15.12 274.20-13L274.20-13L274.12 0L267.40 0L267.40-13.44Q267.40-14.88 266.84-15.28Q266.28-15.68 264.80-15.68L264.80-15.68L264.80 0L257.84 0ZM264.84-21.64L266.48-21.64Q267.92-21.64 267.92-24.76L267.92-24.76Q267.92-26.12 267.80-26.80Q267.68-27.48 267.36-27.74Q267.04-28 266.44-28L266.44-28L264.84-28L264.84-21.64Z M289.56 0L282.68 0L282.68-27.76L278.60-27.76L278.60-34.36L293.64-34.36L293.64-27.76L289.56-27.76L289.56 0Z M304.68 0L298.04 0L298.04-34.36L304.68-34.36L304.68 0Z M324.44 0L310.24 0L310.24-34.36L324-34.36L324-27.72L317.24-27.72L317.24-21.04L323.72-21.04L323.72-14.56L317.24-14.56L317.24-6.68L324.44-6.68L324.44 0Z M337.68 0.32Q333.00 0.32 330.92-2Q328.84-4.32 328.84-9.48L328.84-9.48L328.84-12.84L335.60-12.84L335.60-8.56Q335.60-6 337.24-6L337.24-6Q338.16-6 338.52-6.54Q338.88-7.08 338.88-8.36L338.88-8.36Q338.88-10.04 338.48-11.14Q338.08-12.24 337.46-12.98Q336.84-13.72 335.24-15.28L335.24-15.28L332.28-18.24Q328.84-21.60 328.84-25.68L328.84-25.68Q328.84-30.08 330.86-32.38Q332.88-34.68 336.76-34.68L336.76-34.68Q341.40-34.68 343.44-32.22Q345.48-29.76 345.48-24.52L345.48-24.52L338.48-24.52L338.44-26.88Q338.44-27.56 338.06-27.96Q337.68-28.36 337.00-28.36L337.00-28.36Q336.20-28.36 335.80-27.92Q335.40-27.48 335.40-26.72L335.40-26.72Q335.40-25.04 337.32-23.24L337.32-23.24L341.32-19.40Q342.72-18.04 343.64-16.82Q344.56-15.60 345.12-13.94Q345.68-12.28 345.68-10L345.68-10Q345.68-4.92 343.82-2.30Q341.96 0.32 337.68 0.32L337.68 0.32Z"/></g>
</svg>
</g></svg></svg>