<svg version="1.1" preserveAspectRatio="none" xmlns="http://www.w3.org/2000/svg" width="500" height="500" viewBox="0 0 500 500"><rect width="100%" height="100%" fill="#FFFFFF" fill-opacity="1"/><svg viewBox="33.6486 108.4162 390.6136 158.518" width="333" height="135.13736848896198" x="83.5px" y="182.4313px" xmlns="http://www.w3.org/2000/svg" xmlns:xlink="http://www.w3.org/1999/xlink" preserveAspectRatio="none"><defs></defs><style>.companyName {fill:#1C1C1C;fill-opacity:1;}.icon1 {fill:#1C1C1C;fill-opacity:1;}.icon2 {fill:#BAAE57;fill-opacity:1;}.icon3 {fill:#E192BB;fill-opacity:1;}.icon3-str {stroke:#E192BB;stroke-opacity:1;}.text {fill:#1C1C1C;fill-opacity:1;}</style><g opacity="1" transform="rotate(0 152.3225 246.9342)">
<svg width="153.2658" height="20" x="152.3225" y="246.9342" version="1.1" preserveAspectRatio="none" viewBox="4.32 -29.2 226.8 29.6">
  <g transform="matrix(1 0 0 1 0 0)" class="text"><path id="id-6izo4zJp11" d="M21.04 0L13.84-10.96L7.52-10.96L7.52 0L4.32 0L4.32-26.40L14.32-26.40Q18.36-26.40 20.80-24.32Q23.24-22.24 23.24-18.68L23.24-18.68Q23.24-15.88 21.68-13.96Q20.12-12.04 17.40-11.32L17.40-11.32L24.84 0L21.04 0ZM7.52-23.40L7.52-13.96L14.28-13.96Q19.88-13.96 19.88-18.68L19.88-18.68Q19.88-23.40 14.28-23.40L14.28-23.40L7.52-23.40Z M48-11.04Q48-9.92 47.84-8.80L47.84-8.80L32.76-8.80Q33.04-5.76 34.78-4.08Q36.52-2.40 39.28-2.40L39.28-2.40Q41.48-2.40 42.94-3.16Q44.40-3.92 44.92-5.36L44.92-5.36L47.60-3.96Q46.40-1.84 44.40-0.72Q42.40 0.40 39.28 0.40L39.28 0.40Q34.76 0.40 32.18-2.36Q29.60-5.12 29.60-10L29.60-10Q29.60-14.88 32.06-17.64Q34.52-20.40 39.04-20.40L39.04-20.40Q41.84-20.40 43.88-19.16Q45.92-17.92 46.96-15.80Q48-13.68 48-11.04L48-11.04ZM39.04-17.60Q36.40-17.60 34.78-16.04Q33.16-14.48 32.80-11.64L32.80-11.64L44.92-11.64Q44.60-14.44 43.08-16.02Q41.56-17.60 39.04-17.60L39.04-17.60Z M71.68-2.32Q72.48-2.32 73.28-2.52L73.28-2.52L73.08 0Q71.96 0.40 70.68 0.40L70.68 0.40Q69.12 0.40 68.22-0.28Q67.32-0.96 67.08-2.56L67.08-2.56Q66.16-1.16 64.38-0.38Q62.60 0.40 60.64 0.40L60.64 0.40Q57.68 0.40 55.76-0.98Q53.84-2.36 53.84-4.96L53.84-4.96Q53.84-7.24 55.84-8.90Q57.84-10.56 61.64-11.20L61.64-11.20L66.96-12.08L66.96-13.20Q66.96-15.20 65.72-16.40Q64.48-17.60 62.28-17.60L62.28-17.60Q60.28-17.60 58.82-16.64Q57.36-15.68 56.56-13.80L56.56-13.80L54.20-15.52Q55-17.76 57.18-19.08Q59.36-20.40 62.28-20.40L62.28-20.40Q65.84-20.40 68-18.68Q70.16-16.96 70.16-13.60L70.16-13.60L70.16-3.76Q70.16-3.04 70.52-2.68Q70.88-2.32 71.68-2.32L71.68-2.32ZM60.80-2.40Q63.32-2.40 65.14-3.60Q66.96-4.80 66.96-6.72L66.96-6.72L66.96-9.48L62.48-8.64Q59.80-8.16 58.48-7.26Q57.16-6.36 57.16-4.96L57.16-4.96Q57.16-3.72 58.12-3.06Q59.08-2.40 60.80-2.40L60.80-2.40Z M82.16-29.20L82.16-5.36Q82.16-3.84 82.62-3.26Q83.08-2.68 84.32-2.68L84.32-2.68Q85.16-2.68 85.78-2.80Q86.40-2.92 87.24-3.24L87.24-3.24L86.72-0.16Q85.40 0.40 83.76 0.40L83.76 0.40Q81.32 0.40 80.14-0.92Q78.96-2.24 78.96-4.96L78.96-4.96L78.96-29.20L82.16-29.20Z M109.80-3L125.72-3L125.72 0L106.60 0L106.60-26.40L125.12-26.40L125.12-23.40L109.80-23.40L109.80-14.88L121.72-14.88L121.72-11.88L109.80-11.88L109.80-3Z M139.52 0.40Q136.64 0.40 134.32-0.74Q132-1.88 130.92-4.12L130.92-4.12L133.52-5.92Q134.20-4.16 135.88-3.28Q137.56-2.40 139.84-2.40L139.84-2.40Q142.20-2.40 143.44-3.24Q144.68-4.08 144.68-5.36L144.68-5.36Q144.68-6.52 143.52-7.22Q142.36-7.92 139.44-8.44L139.44-8.44Q136.56-8.96 134.88-9.70Q133.20-10.44 132.44-11.58Q131.68-12.72 131.68-14.40L131.68-14.40Q131.68-16.04 132.64-17.40Q133.60-18.76 135.40-19.58Q137.20-20.40 139.56-20.40L139.56-20.40Q142.76-20.40 144.70-19.22Q146.64-18.04 147.48-15.60L147.48-15.60L144.76-14Q144.12-15.92 142.82-16.76Q141.52-17.60 139.56-17.60L139.56-17.60Q137.60-17.60 136.24-16.72Q134.88-15.84 134.88-14.68L134.88-14.68Q134.88-13.36 136.06-12.64Q137.24-11.92 140.28-11.40L140.28-11.40Q144.44-10.72 146.16-9.36Q147.88-8 147.88-5.52L147.88-5.52Q147.88-3.80 146.86-2.46Q145.84-1.12 143.94-0.36Q142.04 0.40 139.52 0.40L139.52 0.40Z M166.12-4.08L167.24-1.40Q165.24 0.40 162.08 0.40L162.08 0.40Q159.64 0.40 158.10-0.92Q156.56-2.24 156.52-4.96L156.52-4.96L156.52-17.24L152.52-17.24L152.52-20L156.52-20L156.52-24.80L159.72-25.68L159.72-20L167.12-20L167.12-17.24L159.72-17.24L159.72-5.52Q159.72-4.08 160.54-3.34Q161.36-2.60 162.72-2.60L162.72-2.60Q164.64-2.60 166.12-4.08L166.12-4.08Z M189.36-2.32Q190.16-2.32 190.96-2.52L190.96-2.52L190.76 0Q189.64 0.40 188.36 0.40L188.36 0.40Q186.80 0.40 185.90-0.28Q185.00-0.96 184.76-2.56L184.76-2.56Q183.84-1.16 182.06-0.38Q180.28 0.40 178.32 0.40L178.32 0.40Q175.36 0.40 173.44-0.98Q171.52-2.36 171.52-4.96L171.52-4.96Q171.52-7.24 173.52-8.90Q175.52-10.56 179.32-11.20L179.32-11.20L184.64-12.08L184.64-13.20Q184.64-15.20 183.40-16.40Q182.16-17.60 179.96-17.60L179.96-17.60Q177.96-17.60 176.50-16.64Q175.04-15.68 174.24-13.80L174.24-13.80L171.88-15.52Q172.68-17.76 174.86-19.08Q177.04-20.40 179.96-20.40L179.96-20.40Q183.52-20.40 185.68-18.68Q187.84-16.96 187.84-13.60L187.84-13.60L187.84-3.76Q187.84-3.04 188.20-2.68Q188.56-2.32 189.36-2.32L189.36-2.32ZM178.48-2.40Q181.00-2.40 182.82-3.60Q184.64-4.80 184.64-6.72L184.64-6.72L184.64-9.48L180.16-8.64Q177.48-8.16 176.16-7.26Q174.84-6.36 174.84-4.96L174.84-4.96Q174.84-3.72 175.80-3.06Q176.76-2.40 178.48-2.40L178.48-2.40Z M207.12-4.08L208.24-1.40Q206.24 0.40 203.08 0.40L203.08 0.40Q200.64 0.40 199.10-0.92Q197.56-2.24 197.52-4.96L197.52-4.96L197.52-17.24L193.52-17.24L193.52-20L197.52-20L197.52-24.80L200.72-25.68L200.72-20L208.12-20L208.12-17.24L200.72-17.24L200.72-5.52Q200.72-4.08 201.54-3.34Q202.36-2.60 203.72-2.60L203.72-2.60Q205.64-2.60 207.12-4.08L207.12-4.08Z M231.12-11.04Q231.12-9.92 230.96-8.80L230.96-8.80L215.88-8.80Q216.16-5.76 217.90-4.08Q219.64-2.40 222.40-2.40L222.40-2.40Q224.60-2.40 226.06-3.16Q227.52-3.92 228.04-5.36L228.04-5.36L230.72-3.96Q229.52-1.84 227.52-0.72Q225.52 0.40 222.40 0.40L222.40 0.40Q217.88 0.40 215.30-2.36Q212.72-5.12 212.72-10L212.72-10Q212.72-14.88 215.18-17.64Q217.64-20.40 222.16-20.40L222.16-20.40Q224.96-20.40 227.00-19.16Q229.04-17.92 230.08-15.80Q231.12-13.68 231.12-11.04L231.12-11.04ZM222.16-17.60Q219.52-17.60 217.90-16.04Q216.28-14.48 215.92-11.64L215.92-11.64L228.04-11.64Q227.72-14.44 226.20-16.02Q224.68-17.60 222.16-17.60L222.16-17.60Z"/></g>
</svg>
</g><g opacity="1" transform="rotate(0 33.6486 188.9342)">
<svg width="390.6136" height="40" x="33.6486" y="188.9342" version="1.1" preserveAspectRatio="none" viewBox="1.2 -27.24 348.04 35.64">
  <g transform="matrix(1 0 0 1 0 0)" class="companyName"><path id="id-D6z1nYkh18" d="M9.20-21.60L9.20-21.60L9.20-11.28Q13.20-11.28 14.56-12.44Q15.92-13.60 15.92-16.32Q15.92-19.04 14.52-20.32Q13.12-21.60 9.20-21.60ZM24.92-0.40L24.92 0.40L23.16 0.40Q18.16 0.40 16.20-1.76L16.20-1.76Q14.64-3.44 14.08-6.20L14.08-6.20Q13.84-7.36 13.56-8.32L13.56-8.32Q12.92-10.48 10.96-10.48L10.96-10.48L9.20-10.48L9.20-0.80L11.20-0.80L11.20 0L1.20 0L1.20-0.80L3.20-0.80L3.20-21.60L1.20-21.60L1.20-22.40L11.72-22.40Q21.92-22.40 21.92-16.44L21.92-16.44Q21.92-14.08 20.20-12.60Q18.48-11.12 15.80-11.12L15.80-11.12L15.80-10.84Q19.80-10.84 21.36-5.56L21.36-5.56Q22.16-2.76 22.98-1.58Q23.80-0.40 24.92-0.40L24.92-0.40Z M44.60-8L44.60-8L32.52-8Q32.92-0.96 38-0.96L38-0.96Q39.36-0.96 41.10-1.60Q42.84-2.24 43.64-3.40L43.64-3.40L44.20-3Q43.32-1.52 41.20-0.56Q39.08 0.40 36.98 0.40Q34.88 0.40 33.20-0.02Q31.52-0.44 29.92-1.44Q28.32-2.44 27.42-4.44Q26.52-6.44 26.52-9.28L26.52-9.28Q26.52-14.12 29.20-16.46Q31.88-18.80 35.70-18.80Q39.52-18.80 42.06-16.24Q44.60-13.68 44.60-8ZM32.48-9.24L32.48-8.80L39-8.80Q39-12.48 38.22-15.24Q37.44-18 35.72-18Q34-18 33.24-15.34Q32.48-12.68 32.48-9.24L32.48-9.24Z M68.52-11.12L68.52-0.80L70.52-0.80L70.52 0L60.52 0L60.52-0.80L62.52-0.80L62.52-12Q62.52-14.84 61.68-16.04Q60.84-17.24 59.16-17.24L59.16-17.24Q56.88-17.24 55.52-14.84L55.52-14.84L55.52-0.80L57.52-0.80L57.52 0L47.52 0L47.52-0.80L49.52-0.80L49.52-26L47.52-26L47.52-26.80L55.52-26.80L55.52-16.32Q56.28-17.40 57.88-18.12Q59.48-18.84 61.40-18.84L61.40-18.84Q68.52-18.84 68.52-11.12L68.52-11.12Z M106.92-11.12L106.92-0.80L108.92-0.80L108.92 0L98.92 0L98.92-0.80L100.92-0.80L100.92-12Q100.92-14.84 100.08-16.04Q99.24-17.24 97.56-17.24L97.56-17.24Q96.60-17.24 95.56-16.68Q94.52-16.12 93.84-15.12L93.84-15.12Q94.32-13.68 94.32-11.12L94.32-11.12L94.32-0.80L96.32-0.80L96.32 0L85.92 0L85.92-0.80L88.32-0.80L88.32-12Q88.32-14.84 87.48-16.04Q86.64-17.24 84.96-17.24L84.96-17.24Q82.68-17.24 81.32-14.84L81.32-14.84L81.32-0.80L83.32-0.80L83.32 0L73.32 0L73.32-0.80L75.32-0.80L75.32-17.60L73.32-17.60L73.32-18.40L81.32-18.40L81.32-16.32Q82.08-17.36 83.70-18.10Q85.32-18.84 87.20-18.84L87.20-18.84Q91.96-18.84 93.40-16.16L93.40-16.16Q94.44-17.44 96.16-18.14Q97.88-18.84 99.80-18.84L99.80-18.84Q106.92-18.84 106.92-11.12L106.92-11.12Z M131.12-0.80Q130.72-0.40 129.60-0.10Q128.48 0.20 127 0.20L127 0.20Q123.72 0.20 122.88-1.76L122.88-1.76Q120.88 0.32 116.76 0.32L116.76 0.32Q114.56 0.32 113.14-0.70Q111.72-1.72 111.72-3.72L111.72-3.72Q111.72-6.40 113.80-7.86Q115.88-9.32 121.08-9.92L121.08-9.92L122.68-10.12L122.68-12.08Q122.68-15.56 122.16-16.76Q121.64-17.96 120.10-17.96Q118.56-17.96 118.12-17.54Q117.68-17.12 117.80-16.58Q117.92-16.04 118.20-15.16Q118.48-14.28 118.48-13.76L118.48-13.76Q118.48-12.52 117.62-11.66Q116.76-10.80 115.54-10.80Q114.32-10.80 113.44-11.66Q112.56-12.52 112.56-13.76L112.56-13.76Q112.56-15.80 114.66-17.26Q116.76-18.72 120.94-18.72Q125.12-18.72 126.90-17.08Q128.68-15.44 128.68-11.28L128.68-11.28L128.68-4.08Q128.68-1.96 129.20-1.42Q129.72-0.88 131.12-1.20L131.12-1.20L131.12-0.80ZM117.28-4.52Q117.48-3 118.40-2.18Q119.32-1.36 120.54-1.36Q121.76-1.36 122.68-2.56L122.68-2.56L122.68-9.36L121.24-9.16Q119.40-8.92 118.26-7.76Q117.12-6.60 117.28-4.52L117.28-4.52Z M145.52-17.60L140.88-17.60L140.88-7.84Q140.88-4.40 141.16-3.66Q141.44-2.92 141.76-2.40L141.76-2.40Q142.36-1.36 143.86-1.36Q145.36-1.36 145.96-1.76L145.96-1.76L145.96-0.96Q144.04 0.40 141.76 0.40L141.76 0.40Q138.40 0.40 136.64-1.20Q134.88-2.80 134.88-6.92L134.88-6.92L134.88-17.60L131.92-17.60L131.92-18.40L134.88-18.40Q136.80-18.72 138.28-20.26Q139.76-21.80 140.32-24.52L140.32-24.52L140.88-24.52L140.88-18.40L145.52-18.40L145.52-17.60Z M164.56-21.60L164.56-21.60L164.56-8.56Q167.84-8.56 169.04-9.98Q170.24-11.40 170.24-14.96Q170.24-18.52 169.04-20.06Q167.84-21.60 164.56-21.60ZM164.56-0.80L166.56-0.80L166.56 0L156.56 0L156.56-0.80L158.56-0.80L158.56-21.60L156.56-21.60L156.56-22.40L164.52-22.40Q176.28-22.96 176.28-14.84L176.28-14.84Q176.28-11.24 173.32-9.36Q170.36-7.48 164.56-7.76L164.56-7.76L164.56-0.80Z M189.08-0.80L189.08 0L179.08 0L179.08-0.80L181.08-0.80L181.08-17.60L179.08-17.60L179.08-18.40L187.08-18.40L187.08-13.64Q187.44-15.60 188.38-16.84Q189.32-18.08 190.46-18.48Q191.60-18.88 192.66-18.88Q193.72-18.88 194.70-18.50Q195.68-18.12 196.16-16.98Q196.64-15.84 196.20-14.70Q195.76-13.56 194.66-13.08Q193.56-12.60 192.64-12.96Q191.72-13.32 191.32-13.94Q190.92-14.56 190.76-15.12L190.76-15.12Q190.36-16.60 189.68-16.60L189.68-16.60Q188.92-16.60 188.00-13.98Q187.08-11.36 187.08-8.44L187.08-8.44L187.08-0.80L189.08-0.80Z M205-2.42Q205.88-0.40 208.04-0.40Q210.20-0.40 211.12-2.44Q212.04-4.48 212.04-9.18Q212.04-13.88 211.12-15.94Q210.20-18 208.04-18Q205.88-18 205-15.94Q204.12-13.88 204.12-9.16Q204.12-4.44 205-2.42ZM207.96 0.40Q204.16 0.40 201.08-2.08Q198-4.56 198-9.12L198-9.12Q198-11.56 198.90-13.48Q199.80-15.40 201.30-16.52Q202.80-17.64 204.52-18.22Q206.24-18.80 208.04-18.80Q209.84-18.80 211.58-18.22Q213.32-17.64 214.82-16.52Q216.32-15.40 217.24-13.48Q218.16-11.56 218.16-9.16Q218.16-6.76 217.24-4.88Q216.32-3 214.80-1.88L214.80-1.88Q211.76 0.40 207.96 0.40Z M228.16-9.64L228.16-9.64L228.16-3.04Q229.24-0.88 230.98-0.88Q232.72-0.88 233.96-2.88Q235.20-4.88 235.20-9.30Q235.20-13.72 234.24-15.50Q233.28-17.28 231.32-17.28Q229.36-17.28 228.76-15.68Q228.16-14.08 228.16-9.64ZM228.16-18.40L228.16-16.56Q229.52-18.88 233.04-18.88Q236.56-18.88 238.92-16.32Q241.28-13.76 241.28-9.08Q241.28-4.40 238.96-1.76Q236.64 0.88 233.32 0.88L233.32 0.88Q231.68 0.88 230.24 0.20Q228.80-0.48 228.16-1.84L228.16-1.84L228.16 7.60L230.16 7.60L230.16 8.40L222.16 8.40L222.16-17.60L220.16-17.60L220.16-18.40L228.16-18.40Z M261.76-8L261.76-8L249.68-8Q250.08-0.96 255.16-0.96L255.16-0.96Q256.52-0.96 258.26-1.60Q260-2.24 260.80-3.40L260.80-3.40L261.36-3Q260.48-1.52 258.36-0.56Q256.24 0.40 254.14 0.40Q252.04 0.40 250.36-0.02Q248.68-0.44 247.08-1.44Q245.48-2.44 244.58-4.44Q243.68-6.44 243.68-9.28L243.68-9.28Q243.68-14.12 246.36-16.46Q249.04-18.80 252.86-18.80Q256.68-18.80 259.22-16.24Q261.76-13.68 261.76-8ZM249.64-9.24L249.64-8.80L256.16-8.80Q256.16-12.48 255.38-15.24Q254.60-18 252.88-18Q251.16-18 250.40-15.34Q249.64-12.68 249.64-9.24L249.64-9.24Z M274.68-0.80L274.68 0L264.68 0L264.68-0.80L266.68-0.80L266.68-17.60L264.68-17.60L264.68-18.40L272.68-18.40L272.68-13.64Q273.04-15.60 273.98-16.84Q274.92-18.08 276.06-18.48Q277.20-18.88 278.26-18.88Q279.32-18.88 280.30-18.50Q281.28-18.12 281.76-16.98Q282.24-15.84 281.80-14.70Q281.36-13.56 280.26-13.08Q279.16-12.60 278.24-12.96Q277.32-13.32 276.92-13.94Q276.52-14.56 276.36-15.12L276.36-15.12Q275.96-16.60 275.28-16.60L275.28-16.60Q274.52-16.60 273.60-13.98Q272.68-11.36 272.68-8.44L272.68-8.44L272.68-0.80L274.68-0.80Z M296.00-17.60L291.36-17.60L291.36-7.84Q291.36-4.40 291.64-3.66Q291.92-2.92 292.24-2.40L292.24-2.40Q292.84-1.36 294.34-1.36Q295.84-1.36 296.44-1.76L296.44-1.76L296.44-0.96Q294.52 0.40 292.24 0.40L292.24 0.40Q288.88 0.40 287.12-1.20Q285.36-2.80 285.36-6.92L285.36-6.92L285.36-17.60L282.40-17.60L282.40-18.40L285.36-18.40Q287.28-18.72 288.76-20.26Q290.24-21.80 290.80-24.52L290.80-24.52L291.36-24.52L291.36-18.40L296.00-18.40L296.00-17.60Z M306.44-18.40L306.44-0.80L308.44-0.80L308.44 0L298.44 0L298.44-0.80L300.44-0.80L300.44-17.60L298.84-17.60L298.84-18.40L306.44-18.40ZM306.80-23.70Q306.80-22.24 305.78-21.22Q304.76-20.20 303.30-20.20Q301.84-20.20 300.80-21.22Q299.76-22.24 299.76-23.70Q299.76-25.16 300.80-26.20Q301.84-27.24 303.30-27.24Q304.76-27.24 305.78-26.20Q306.80-25.16 306.80-23.70Z M328.92-8L328.92-8L316.84-8Q317.24-0.96 322.32-0.96L322.32-0.96Q323.68-0.96 325.42-1.60Q327.16-2.24 327.96-3.40L327.96-3.40L328.52-3Q327.64-1.52 325.52-0.56Q323.40 0.40 321.30 0.40Q319.20 0.40 317.52-0.02Q315.84-0.44 314.24-1.44Q312.64-2.44 311.74-4.44Q310.84-6.44 310.84-9.28L310.84-9.28Q310.84-14.12 313.52-16.46Q316.20-18.80 320.02-18.80Q323.84-18.80 326.38-16.24Q328.92-13.68 328.92-8ZM316.80-9.24L316.80-8.80L323.32-8.80Q323.32-12.48 322.54-15.24Q321.76-18 320.04-18Q318.32-18 317.56-15.34Q316.80-12.68 316.80-9.24L316.80-9.24Z M340.64-0.32L340.64-0.32Q344.80-0.32 344.80-2.60L344.80-2.60Q344.80-3.88 343.36-4.70Q341.92-5.52 339.88-6.04Q337.84-6.56 335.86-7.24Q333.88-7.92 332.58-9.40Q331.28-10.88 331.52-13.28Q331.76-15.68 333.98-17.24Q336.20-18.80 339.46-18.80Q342.72-18.80 344.72-17.76Q346.72-16.72 346.96-14.96L346.96-14.96Q347.12-13.88 346.62-12.96Q346.12-12.04 344.98-12Q343.84-11.96 343.10-12.60Q342.36-13.24 342.40-14.08Q342.44-14.92 343.04-15.58Q343.64-16.24 343.64-16.64L343.64-16.64Q343.64-17.32 342.34-17.66Q341.04-18 339.34-18Q337.64-18 336.56-17.24Q335.48-16.48 335.48-15.36Q335.48-14.24 336.82-13.44Q338.16-12.64 340.08-12.14Q342.00-11.64 343.90-11.02Q345.80-10.40 347.14-9.04Q348.48-7.68 348.48-5.60L348.48-5.60Q348.48-2.84 346.52-1.18Q344.56 0.48 340.60 0.48Q336.64 0.48 334.18-0.72Q331.72-1.92 331.48-3.80L331.48-3.80Q331.32-4.88 331.84-5.80Q332.36-6.72 333.48-6.76Q334.60-6.80 335.34-6.16Q336.08-5.52 336.04-4.68Q336.00-3.84 335.40-3.18Q334.80-2.52 334.80-2.12L334.80-2.12Q334.80-1.32 336.66-0.82Q338.52-0.32 340.64-0.32Z"/></g>
</svg>
</g><g opacity="1" transform="rotate(0 170.3634 108.4162)">
<svg width="117.1841" height="54.518" x="170.3634" y="108.4162" version="1.1" preserveAspectRatio="none" viewBox="7.767000198364258 51.69300079345703 183.50999450683594 85.37499237060547">
  <g transform="matrix(1 0 0 1 0 0)"><g><path d="M178.752 121.175h-8V92.854l-42.739-31.219L99.51 82.877H29.201v38.298h-8V74.877h75.655l31.109-23.184 50.787 37.099v32.383z" data-color="1" class="icon1"></path><path d="M191.277 129.068v8H7.767v-8h183.51z" data-color="1" class="icon1"></path><path d="M131.794 91.26v15.298h-8V91.26h8z" data-color="1" class="icon1"></path><path d="M75.724 91.26v15.298h-8V91.26h8z" data-color="1" class="icon1"></path><path d="M51.213 91.26v15.298h-8V91.26h8z" data-color="1" class="icon1"></path></g></g>
</svg>
</g></svg></svg>