<svg version="1.1" preserveAspectRatio="none" xmlns="http://www.w3.org/2000/svg" width="500" height="500" viewBox="0 0 500 500"><rect width="100%" height="100%" fill="#0F222D" fill-opacity="1"/><svg viewBox="132.8391 -6.3873 399.9407 211.6653" width="333" height="176.23748945781213" x="83.5px" y="161.8813px" xmlns="http://www.w3.org/2000/svg" xmlns:xlink="http://www.w3.org/1999/xlink" preserveAspectRatio="none"><defs></defs><style>.aDFQBjvS2colors-3 {fill:#21303A;fill-opacity:1;}.aDFQBjvS2colors-4 {fill:#51819E;fill-opacity:1;}.aDFQBjvS2colors-5 {fill:#064B75;fill-opacity:1;}.aDFQBjvS2colors-6 {fill:#ACA58C;fill-opacity:1;}.aDFQBjvS2colors-7 {fill:#3E5563;fill-opacity:1;}.companyName {fill:#EBE7D9;fill-opacity:1;}.icon1 {fill:#FFF5D0;fill-opacity:1;}.icon2 {fill:#BA3521;fill-opacity:1;}.icon3 {fill:#F55139;fill-opacity:1;}.icon3-str {stroke:#F55139;stroke-opacity:1;}.text {fill:#EBE7D9;fill-opacity:1;}</style><g opacity="1" transform="rotate(0 268.9047 187.598)">
<svg width="127.8096" height="17.68" x="268.9047" y="187.598" version="1.1" preserveAspectRatio="none" viewBox="4.16 -31 226.96 31.400000000000002">
  <g transform="matrix(1 0 0 1 0 0)" class="text"><path id="id-6izo4zJp11" d="M24.60 0L20.08 0L13.28-10.68Q12.96-10.64 12.32-10.64L12.32-10.64L8.04-10.64L8.04 0L4.16 0L4.16-28.92L11.88-28.92Q14.84-28.92 17.16-27.88Q19.48-26.84 20.80-24.82Q22.12-22.80 22.12-19.96L22.12-19.96Q22.12-17.28 20.94-15.04Q19.76-12.80 17.32-11.64L17.32-11.64L24.60 0ZM12.24-14.40Q15.36-14.40 16.74-16.04Q18.12-17.68 18.12-19.80L18.12-19.80Q18.12-21.08 17.54-22.32Q16.96-23.56 15.70-24.38Q14.44-25.20 12.52-25.20L12.52-25.20L8.04-25.20L8.04-14.40L12.24-14.40Z M39.28-2.80Q41.36-2.80 43.32-4.24L43.32-4.24L45.04-1.48Q43.72-0.60 42.18-0.10Q40.64 0.40 39.20 0.40L39.20 0.40Q36.44 0.40 34.38-0.74Q32.32-1.88 31.20-3.88Q30.08-5.88 30.08-8.40L30.08-8.40Q30.08-10.84 31.30-12.86Q32.52-14.88 34.64-16.06Q36.76-17.24 39.28-17.24L39.28-17.24Q42.52-17.24 44.70-15.34Q46.88-13.44 47.68-10.04L47.68-10.04L34.56-5.44Q35.28-4.20 36.50-3.50Q37.72-2.80 39.28-2.80L39.28-2.80ZM39-14.28Q36.72-14.28 35.24-12.68Q33.76-11.08 33.76-8.60L33.76-8.60Q33.76-8 33.80-7.68L33.80-7.68L43.44-11.24Q42.84-12.60 41.74-13.44Q40.64-14.28 39-14.28L39-14.28Z M68.28-16.56L71.72-16.56L71.72 0L68 0L68-2.72Q67.12-1.56 65.44-0.58Q63.76 0.40 61.64 0.40L61.64 0.40Q59.28 0.40 57.38-0.62Q55.48-1.64 54.38-3.60Q53.28-5.56 53.28-8.28L53.28-8.28Q53.28-11 54.42-13.02Q55.56-15.04 57.50-16.14Q59.44-17.24 61.80-17.24L61.80-17.24Q63.92-17.24 65.48-16.32Q67.04-15.40 68-13.92L68-13.92L68.28-16.56ZM62.64-2.68Q64.68-2.68 66.14-3.82Q67.60-4.96 68-6.92L68-6.92L68-10.20Q67.52-11.96 66-13.06Q64.48-14.16 62.52-14.16L62.52-14.16Q61.04-14.16 59.78-13.44Q58.52-12.72 57.78-11.42Q57.04-10.12 57.04-8.48L57.04-8.48Q57.04-6.88 57.80-5.56Q58.56-4.24 59.84-3.46Q61.12-2.68 62.64-2.68L62.64-2.68Z M80.60-31L84.32-31L84.32 0L80.60 0L80.60-31Z M109.16-28.92L127.96-28.92L127.96-25.20L113.04-25.20L113.04-16.40L126.36-16.40L126.36-12.68L113.04-12.68L113.04-3.76L128.52-3.76L128.52 0L109.16 0L109.16-28.92Z M141.44 0.36Q139.60 0.36 137.94-0.28Q136.28-0.92 135.24-2.16L135.24-2.16L136.84-4.32Q137.84-3.36 138.94-2.84Q140.04-2.32 141.12-2.32L141.12-2.32Q142.44-2.32 143.28-2.84Q144.12-3.36 144.12-4.44L144.12-4.44Q144.12-5.28 143.60-5.80Q143.08-6.32 142.42-6.56Q141.76-6.80 140.20-7.28L140.20-7.28Q135.96-8.64 135.96-12.12L135.96-12.12Q135.96-14.20 137.50-15.68Q139.04-17.16 141.80-17.16L141.80-17.16Q143.56-17.16 144.92-16.72Q146.28-16.28 147.44-15.32L147.44-15.32L145.96-13.04Q145.32-13.72 144.34-14.12Q143.36-14.52 142.48-14.56L142.48-14.56Q141.36-14.56 140.56-14.02Q139.76-13.48 139.76-12.56L139.76-12.56Q139.76-11.80 140.28-11.30Q140.80-10.80 141.36-10.58Q141.92-10.36 143.56-9.84L143.56-9.84Q145.60-9.16 146.74-8.08Q147.88-7 147.88-5.16L147.88-5.16Q147.88-2.76 146.20-1.20Q144.52 0.36 141.44 0.36L141.44 0.36Z M157.08-23.84L160.84-23.84L160.84-16.52L165.36-16.52L165.36-13.56L160.84-13.56L160.84 0L157.08 0L157.08-13.56L154.04-13.56L154.04-16.52L157.08-16.52L157.08-23.84Z M185.84-16.56L189.28-16.56L189.28 0L185.56 0L185.56-2.72Q184.68-1.56 183.00-0.58Q181.32 0.40 179.20 0.40L179.20 0.40Q176.84 0.40 174.94-0.62Q173.04-1.64 171.94-3.60Q170.84-5.56 170.84-8.28L170.84-8.28Q170.84-11 171.98-13.02Q173.12-15.04 175.06-16.14Q177.00-17.24 179.36-17.24L179.36-17.24Q181.48-17.24 183.04-16.32Q184.60-15.40 185.56-13.92L185.56-13.92L185.84-16.56ZM180.20-2.68Q182.24-2.68 183.70-3.82Q185.16-4.96 185.56-6.92L185.56-6.92L185.56-10.20Q185.08-11.96 183.56-13.06Q182.04-14.16 180.08-14.16L180.08-14.16Q178.60-14.16 177.34-13.44Q176.08-12.72 175.34-11.42Q174.60-10.12 174.60-8.48L174.60-8.48Q174.60-6.88 175.36-5.56Q176.12-4.24 177.40-3.46Q178.68-2.68 180.20-2.68L180.20-2.68Z M199.76-23.84L203.52-23.84L203.52-16.52L208.04-16.52L208.04-13.56L203.52-13.56L203.52 0L199.76 0L199.76-13.56L196.72-13.56L196.72-16.52L199.76-16.52L199.76-23.84Z M222.72-2.80Q224.80-2.80 226.76-4.24L226.76-4.24L228.48-1.48Q227.16-0.60 225.62-0.10Q224.08 0.40 222.64 0.40L222.64 0.40Q219.88 0.40 217.82-0.74Q215.76-1.88 214.64-3.88Q213.52-5.88 213.52-8.40L213.52-8.40Q213.52-10.84 214.74-12.86Q215.96-14.88 218.08-16.06Q220.20-17.24 222.72-17.24L222.72-17.24Q225.96-17.24 228.14-15.34Q230.32-13.44 231.12-10.04L231.12-10.04L218.00-5.44Q218.72-4.20 219.94-3.50Q221.16-2.80 222.72-2.80L222.72-2.80ZM222.44-14.28Q220.16-14.28 218.68-12.68Q217.20-11.08 217.20-8.60L217.20-8.60Q217.20-8 217.24-7.68L217.24-7.68L226.88-11.24Q226.28-12.60 225.18-13.44Q224.08-14.28 222.44-14.28L222.44-14.28Z"/></g>
</svg>
</g><g opacity="1" transform="rotate(0 132.8391 133.598)">
<svg width="399.9407" height="34" x="132.8391" y="133.598" version="1.1" preserveAspectRatio="none" viewBox="4.3359 -32.3828 491.81640000000004 41.7969">
  <g transform="matrix(1 0 0 1 0 0)" class="companyName"><path id="id-D6z1nYkh18" d="M4.34 0L4.34-30.53L19.86-30.53Q23.38-30.53 25.96-29.79Q28.54-29.06 30.23-27.68Q31.93-26.29 32.76-24.30Q33.59-22.30 33.59-19.79L33.59-19.79Q33.59-18.09 33.18-16.55Q32.77-15.02 31.92-13.73Q31.07-12.44 29.79-11.44Q28.50-10.43 26.76-9.77L26.76-9.77L33.40 0L25.82 0L20.08-8.67L19.90-8.67L10.53-8.69L10.53 0L4.34 0ZM10.53-14.04L20.02-14.04Q21.78-14.04 23.10-14.45Q24.41-14.86 25.30-15.61Q26.19-16.35 26.63-17.41Q27.07-18.48 27.07-19.79L27.07-19.79Q27.07-22.34 25.31-23.74Q23.55-25.14 20.02-25.14L20.02-25.14L10.53-25.14L10.53-14.04Z M39.10-11.60L39.10-11.60Q39.10-13.95 40.06-16.08Q41.02-18.22 42.81-19.86Q44.61-21.50 47.22-22.48Q49.82-23.46 53.14-23.46L53.14-23.46Q56.45-23.46 59.09-22.47Q61.74-21.48 63.58-19.77Q65.43-18.05 66.42-15.72Q67.40-13.40 67.40-10.74L67.40-10.74Q67.40-10.41 67.39-10.03Q67.38-9.65 67.34-9.34L67.34-9.34L45.55-9.34Q45.92-8.30 46.75-7.44Q47.58-6.58 48.83-5.96Q50.08-5.33 51.72-4.99Q53.36-4.65 55.35-4.65L55.35-4.65Q57.34-4.65 59.32-5.07Q61.29-5.49 63.09-6.13L63.09-6.13L65.04-1.72Q63.91-1.19 62.74-0.79Q61.58-0.39 60.32-0.13Q59.06 0.14 57.69 0.27Q56.31 0.41 54.79 0.41L54.79 0.41Q50.90 0.41 47.97-0.53Q45.04-1.46 43.07-3.09Q41.09-4.71 40.10-6.89Q39.10-9.08 39.10-11.60ZM45.55-13.85L61.27-13.85Q60.96-14.80 60.30-15.63Q59.65-16.46 58.67-17.08Q57.70-17.70 56.41-18.05Q55.12-18.40 53.57-18.40L53.57-18.40Q51.93-18.40 50.59-18.03Q49.24-17.66 48.22-17.03Q47.21-16.41 46.53-15.59Q45.86-14.77 45.55-13.85L45.55-13.85Z M73.61 0L73.61-32.38L79.39-32.38L79.39-21.29Q81.21-22.29 83.45-22.87Q85.68-23.46 88.14-23.46L88.14-23.46Q91.00-23.46 93.27-22.62Q95.55-21.78 97.13-20.21Q98.71-18.63 99.56-16.39Q100.41-14.14 100.41-11.33L100.41-11.33L100.41 0L94.65 0L94.65-11.09Q94.65-12.73 94.12-14.09Q93.59-15.45 92.58-16.43Q91.56-17.40 90.11-17.94Q88.65-18.48 86.82-18.48L86.82-18.48Q84.61-18.48 82.71-17.77Q80.82-17.07 79.39-16.00L79.39-16.00L79.39 0L73.61 0Z M107.03 0L107.03-23.05L112.81-23.05L112.81-21.09Q114.98-22.42 117.04-22.94Q119.10-23.46 121.07-23.46L121.07-23.46Q123.83-23.46 126.13-22.58Q128.44-21.70 130.08-19.92L130.08-19.92Q131.35-20.90 132.58-21.57Q133.81-22.25 135.04-22.67Q136.27-23.09 137.54-23.27Q138.81-23.46 140.16-23.46L140.16-23.46Q142.99-23.46 145.29-22.69Q147.60-21.91 149.23-20.39Q150.86-18.87 151.75-16.59Q152.64-14.32 152.64-11.33L152.64-11.33L152.64 0L146.88 0L146.88-10.39Q146.88-12.29 146.34-13.78Q145.80-15.27 144.83-16.30Q143.87-17.32 142.53-17.86Q141.19-18.40 139.59-18.40L139.59-18.40Q138.71-18.40 137.79-18.23Q136.88-18.07 136.01-17.71Q135.14-17.36 134.38-16.83Q133.61-16.29 133.05-15.57L133.05-15.57L133.05 0L127.29 0L127.29-10.39Q127.29-12.29 126.75-13.78Q126.21-15.27 125.24-16.30Q124.28-17.32 122.92-17.86Q121.56-18.40 119.94-18.40L119.94-18.40Q118.95-18.40 117.94-18.19Q116.93-17.99 116.01-17.62Q115.08-17.25 114.27-16.72Q113.46-16.19 112.81-15.53L112.81-15.53L112.81 0L107.03 0Z M158.81-7.27L158.81-7.27Q158.81-8.93 159.53-10.29Q160.25-11.66 161.70-12.65Q163.14-13.63 165.30-14.17Q167.46-14.71 170.33-14.71L170.33-14.71Q172.46-14.71 174.81-14.39Q177.17-14.08 179.67-13.44L179.67-13.44Q179.57-14.53 179.00-15.46Q178.44-16.39 177.43-17.06Q176.43-17.73 175.01-18.11Q173.59-18.48 171.80-18.48L171.80-18.48Q170.82-18.48 169.65-18.36Q168.48-18.24 167.23-18.01Q165.98-17.77 164.76-17.42Q163.54-17.07 162.48-16.58L162.48-16.58L160.72-21.33Q162.03-21.80 163.53-22.19Q165.02-22.58 166.58-22.86Q168.14-23.14 169.71-23.30Q171.27-23.46 172.73-23.46L172.73-23.46Q179.20-23.46 182.34-20.16Q185.49-16.86 185.49-10.04L185.49-10.04L185.49 0L179.71 0L179.71-2.17Q178.81-1.64 177.74-1.17Q176.68-0.70 175.43-0.35Q174.18 0 172.74 0.21Q171.31 0.41 169.71 0.41L169.71 0.41Q167.01 0.41 164.97-0.18Q162.93-0.76 161.56-1.80Q160.20-2.83 159.50-4.23Q158.81-5.63 158.81-7.27ZM164.90-7.46L164.90-7.46Q164.90-6.89 165.20-6.38Q165.49-5.86 166.13-5.46Q166.78-5.06 167.78-4.81Q168.79-4.57 170.21-4.57L170.21-4.57Q171.74-4.57 173.16-4.84Q174.59-5.12 175.82-5.57Q177.05-6.02 178.05-6.60Q179.04-7.19 179.71-7.81L179.71-7.81L179.71-8.83Q178.38-9.20 177.08-9.45Q175.78-9.71 174.60-9.85Q173.42-10 172.37-10.06Q171.33-10.12 170.55-10.12L170.55-10.12Q168.93-10.12 167.85-9.90Q166.78-9.69 166.11-9.33Q165.45-8.96 165.18-8.48Q164.90-7.99 164.90-7.46Z M196.60 0L196.60-18.71L191.04-18.71L191.04-23.05L196.60-23.05L196.60-30.21L202.38-30.21L202.38-23.05L207.95-23.05L207.95-18.71L202.38-18.71L202.38 0L196.60 0Z M227.09 0L227.09-30.53L243.18-30.53Q246.70-30.53 249.28-29.77Q251.86-29.00 253.55-27.57Q255.25-26.13 256.08-24.06Q256.91-21.99 256.91-19.39L256.91-19.39Q256.91-16.95 256.09-14.88Q255.27-12.81 253.58-11.30Q251.89-9.79 249.32-8.94Q246.74-8.09 243.22-8.09L243.22-8.09L233.28-8.11L233.28 0L227.09 0ZM233.28-13.46L243.34-13.46Q245.10-13.46 246.42-13.88Q247.73-14.30 248.62-15.07Q249.51-15.84 249.95-16.94Q250.39-18.05 250.39-19.39L250.39-19.39Q250.39-22.11 248.62-23.62Q246.86-25.14 243.34-25.14L243.34-25.14L233.28-25.14L233.28-13.46Z M262.95 0L262.95-23.05L268.73-23.05L268.73-19.73Q270.64-21.15 272.77-22.19Q274.90-23.22 277.01-23.77L277.01-23.77L278.71-18.48Q275.37-18.14 272.84-16.98Q270.31-15.82 268.73-13.71L268.73-13.71L268.73 0L262.95 0Z M281.62-11.52L281.62-11.52Q281.62-14.00 282.63-16.17Q283.63-18.34 285.50-19.96Q287.36-21.58 290.01-22.52Q292.66-23.46 295.96-23.46L295.96-23.46Q299.26-23.46 301.90-22.52Q304.55-21.58 306.42-19.96Q308.28-18.34 309.29-16.17Q310.29-14.00 310.29-11.52L310.29-11.52Q310.29-9.04 309.29-6.88Q308.28-4.71 306.42-3.09Q304.55-1.46 301.90-0.53Q299.26 0.41 295.96 0.41L295.96 0.41Q292.66 0.41 290.01-0.53Q287.36-1.46 285.50-3.09Q283.63-4.71 282.63-6.88Q281.62-9.04 281.62-11.52ZM287.70-11.52L287.70-11.52Q287.70-10.14 288.25-8.90Q288.81-7.66 289.87-6.71Q290.94-5.76 292.47-5.21Q294.00-4.65 295.96-4.65L295.96-4.65Q297.91-4.65 299.44-5.21Q300.98-5.76 302.04-6.71Q303.11-7.66 303.66-8.90Q304.22-10.14 304.22-11.52L304.22-11.52Q304.22-12.91 303.66-14.16Q303.11-15.41 302.04-16.36Q300.98-17.30 299.44-17.86Q297.91-18.42 295.96-18.42L295.96-18.42Q294.00-18.42 292.47-17.86Q290.94-17.30 289.87-16.36Q288.81-15.41 288.25-14.16Q287.70-12.91 287.70-11.52Z M321.76-1.66L321.76 9.41L315.98 9.41L315.98-23.05L321.76-23.05L321.76-20.88Q322.52-21.41 323.55-21.88Q324.59-22.34 325.78-22.70Q326.97-23.05 328.24-23.25Q329.51-23.46 330.78-23.46L330.78-23.46Q333.71-23.46 336.16-22.60Q338.61-21.74 340.37-20.18Q342.13-18.61 343.12-16.44Q344.10-14.26 344.10-11.62L344.10-11.62Q344.10-8.87 343.07-6.65Q342.03-4.43 340.21-2.86Q338.38-1.29 335.87-0.44Q333.36 0.41 330.43 0.41L330.43 0.41Q329.18 0.41 327.96 0.25Q326.74 0.10 325.62-0.18Q324.49-0.45 323.51-0.83Q322.52-1.21 321.76-1.66L321.76-1.66ZM321.76-15.23L321.76-7.25Q322.64-6.54 323.61-6.05Q324.59-5.57 325.61-5.25Q326.62-4.94 327.66-4.79Q328.69-4.65 329.67-4.65L329.67-4.65Q331.66-4.65 333.21-5.19Q334.77-5.72 335.83-6.66Q336.89-7.60 337.46-8.87Q338.03-10.14 338.03-11.62L338.03-11.62Q338.03-13.01 337.47-14.24Q336.91-15.47 335.87-16.40Q334.82-17.32 333.35-17.86Q331.88-18.40 330.04-18.40L330.04-18.40Q328.87-18.40 327.70-18.17Q326.52-17.95 325.44-17.54Q324.36-17.13 323.41-16.54Q322.46-15.96 321.76-15.23L321.76-15.23Z M348.46-11.60L348.46-11.60Q348.46-13.95 349.41-16.08Q350.37-18.22 352.17-19.86Q353.96-21.50 356.57-22.48Q359.18-23.46 362.50-23.46L362.50-23.46Q365.80-23.46 368.45-22.47Q371.09-21.48 372.94-19.77Q374.79-18.05 375.77-15.72Q376.76-13.40 376.76-10.74L376.76-10.74Q376.76-10.41 376.75-10.03Q376.74-9.65 376.70-9.34L376.70-9.34L354.90-9.34Q355.27-8.30 356.10-7.44Q356.93-6.58 358.18-5.96Q359.43-5.33 361.07-4.99Q362.71-4.65 364.71-4.65L364.71-4.65Q366.70-4.65 368.67-5.07Q370.64-5.49 372.44-6.13L372.44-6.13L374.39-1.72Q373.26-1.19 372.10-0.79Q370.94-0.39 369.68-0.13Q368.42 0.14 367.04 0.27Q365.66 0.41 364.14 0.41L364.14 0.41Q360.25 0.41 357.32-0.53Q354.39-1.46 352.42-3.09Q350.45-4.71 349.45-6.89Q348.46-9.08 348.46-11.60ZM354.90-13.85L370.63-13.85Q370.31-14.80 369.66-15.63Q369.00-16.46 368.03-17.08Q367.05-17.70 365.76-18.05Q364.47-18.40 362.93-18.40L362.93-18.40Q361.29-18.40 359.94-18.03Q358.59-17.66 357.58-17.03Q356.56-16.41 355.89-15.59Q355.21-14.77 354.90-13.85L354.90-13.85Z M382.97 0L382.97-23.05L388.75-23.05L388.75-19.73Q390.66-21.15 392.79-22.19Q394.92-23.22 397.03-23.77L397.03-23.77L398.73-18.48Q395.39-18.14 392.86-16.98Q390.33-15.82 388.75-13.71L388.75-13.71L388.75 0L382.97 0Z M406.50 0L406.50-18.71L400.94-18.71L400.94-23.05L406.50-23.05L406.50-30.21L412.29-30.21L412.29-23.05L417.85-23.05L417.85-18.71L412.29-18.71L412.29 0L406.50 0Z M426.04-26.19L426.04-26.19Q425.18-26.19 424.48-26.44Q423.79-26.68 423.30-27.10Q422.81-27.52 422.55-28.08Q422.29-28.63 422.29-29.26L422.29-29.26Q422.29-29.90 422.55-30.46Q422.81-31.02 423.30-31.43Q423.79-31.84 424.48-32.08Q425.18-32.32 426.04-32.32L426.04-32.32Q426.91-32.32 427.61-32.08Q428.30-31.84 428.79-31.43Q429.28-31.02 429.54-30.46Q429.80-29.90 429.80-29.26L429.80-29.26Q429.80-28.63 429.54-28.08Q429.28-27.52 428.79-27.10Q428.30-26.68 427.61-26.44Q426.91-26.19 426.04-26.19ZM423.14 0L423.14-23.05L428.93-23.05L428.93 0L423.14 0Z M435.23-11.60L435.23-11.60Q435.23-13.95 436.19-16.08Q437.15-18.22 438.95-19.86Q440.74-21.50 443.35-22.48Q445.96-23.46 449.28-23.46L449.28-23.46Q452.58-23.46 455.22-22.47Q457.87-21.48 459.72-19.77Q461.56-18.05 462.55-15.72Q463.54-13.40 463.54-10.74L463.54-10.74Q463.54-10.41 463.53-10.03Q463.52-9.65 463.48-9.34L463.48-9.34L441.68-9.34Q442.05-8.30 442.88-7.44Q443.71-6.58 444.96-5.96Q446.21-5.33 447.85-4.99Q449.49-4.65 451.48-4.65L451.48-4.65Q453.48-4.65 455.45-5.07Q457.42-5.49 459.22-6.13L459.22-6.13L461.17-1.72Q460.04-1.19 458.88-0.79Q457.71-0.39 456.46-0.13Q455.20 0.14 453.82 0.27Q452.44 0.41 450.92 0.41L450.92 0.41Q447.03 0.41 444.10-0.53Q441.17-1.46 439.20-3.09Q437.23-4.71 436.23-6.89Q435.23-9.08 435.23-11.60ZM441.68-13.85L457.40-13.85Q457.09-14.80 456.44-15.63Q455.78-16.46 454.80-17.08Q453.83-17.70 452.54-18.05Q451.25-18.40 449.71-18.40L449.71-18.40Q448.07-18.40 446.72-18.03Q445.37-17.66 444.36-17.03Q443.34-16.41 442.67-15.59Q441.99-14.77 441.68-13.85L441.68-13.85Z M468.16-2.70L470.66-7.07Q473.01-5.66 475.82-5Q478.63-4.34 481.58-4.34L481.58-4.34Q483.57-4.34 484.90-4.61Q486.23-4.88 487.03-5.31Q487.83-5.74 488.16-6.29Q488.50-6.84 488.50-7.40L488.50-7.40Q488.50-8.22 487.78-8.81Q487.07-9.39 485.43-9.39L485.43-9.39Q484.67-9.39 483.79-9.30Q482.91-9.20 481.94-9.09Q480.98-8.98 479.93-8.89Q478.89-8.79 477.81-8.79L477.81-8.79Q475.47-8.79 473.82-9.30Q472.17-9.80 471.13-10.68Q470.10-11.56 469.63-12.76Q469.16-13.96 469.16-15.35L469.16-15.35Q469.16-17.11 469.98-18.59Q470.80-20.08 472.32-21.16Q473.85-22.25 476.01-22.85Q478.16-23.46 480.82-23.46L480.82-23.46Q482.21-23.46 483.72-23.29Q485.23-23.13 486.70-22.85Q488.16-22.58 489.51-22.22Q490.86-21.86 491.89-21.45L491.89-21.45L490.08-16.95Q487.87-17.77 485.67-18.25Q483.48-18.73 481.15-18.73L481.15-18.73Q479.53-18.73 478.41-18.49Q477.29-18.24 476.58-17.84Q475.88-17.44 475.56-16.92Q475.23-16.41 475.23-15.84L475.23-15.84Q475.23-15.43 475.40-15.10Q475.57-14.77 475.95-14.52Q476.33-14.28 476.94-14.15Q477.56-14.02 478.46-14.02L478.46-14.02Q479.28-14.02 480.20-14.12Q481.11-14.22 482.11-14.33Q483.11-14.43 484.17-14.53Q485.23-14.63 486.35-14.63L486.35-14.63Q488.42-14.63 489.97-14.14Q491.52-13.65 492.54-12.77Q493.55-11.89 494.06-10.70Q494.57-9.51 494.57-8.11L494.57-8.11Q494.57-6.29 493.73-4.73Q492.89-3.16 491.23-2.02Q489.57-0.88 487.10-0.23Q484.63 0.41 481.39 0.41L481.39 0.41Q479.39 0.41 477.54 0.17Q475.68-0.08 474.00-0.50Q472.32-0.92 470.85-1.48Q469.38-2.05 468.16-2.70L468.16-2.70Z"/></g>
</svg>
</g><g opacity="1" transform="rotate(0 252.8213 -6.3873)">
<svg width="159.9763" height="109.9853" x="252.8213" y="-6.3873" version="1.1" preserveAspectRatio="none" viewBox="19.998340606689453 44.998512268066406 160.00167846679688 110.00281524658203">
  <g transform="matrix(1 0 0 1 0 0)"><g><path d="M172.084 109.87l.341 38.396-35.767-.12 1.188-38.166h-1.501l-1.187 38.161-72.536-.243.271-37.718-1.501-.013-.271 37.726-2.35-.008-32.145-.108.294-38.825-1.501-.053-.331 43.802a.669.669 0 0 0 .292.584.69.69 0 0 0 .692.529l114.357.925 32.331.262a.708.708 0 0 0 .436-.134.669.669 0 0 0 .506-.348l.101-.199a.856.856 0 0 0 .086-.288.731.731 0 0 0 .084-.36l-.389-43.807-1.5.005zM58.403 152.58l-31.811-.257.023-3.051 113.751.382 32.072.108.033 3.741-114.068-.923z" data-color="1" class="icon1"></path><path d="M61.392 110.166l1.501.013.005-.663.094-13.035.004-.044-9.77-.158 1.163-1.325 37.914-41.592a.779.779 0 0 0-.288-.051l-54.733.743a.696.696 0 0 0-.694.54.806.806 0 0 0-.138.239 680.614 680.614 0 0 0-16.421 52.677.68.68 0 0 0 .202.714.713.713 0 0 0 .683.514l4.505.159 1.501.053 34.472 1.216z" data-color="2" class="icon2"></path><path d="M40.785 141.86a.688.688 0 0 0 .248.549.7.7 0 0 0 .673.475l10.66.238c.304.007.512-.136.624-.337a.689.689 0 0 0 .254-.552l.223-22.695-12.79.092.108 22.23z" data-color="1" class="icon1"></path><path d="M53.481 118.043l.036-3.619a.735.735 0 0 0-.04-.247.748.748 0 0 0-.183-.568c-.063-.308-.297-.577-.705-.58l-11.107-.092a.684.684 0 0 0-.547.234.672.672 0 0 0-.286.58l.021 4.385 12.811-.093z" data-color="1" class="icon1"></path><path d="M147.198 141.856a.688.688 0 0 0 .248.549.7.7 0 0 0 .673.475l10.66.238c.304.007.512-.136.624-.337a.689.689 0 0 0 .254-.552l.223-22.689-12.79.092.108 22.224z" data-color="1" class="icon1"></path><path d="M159.895 118.045l.036-3.625a.735.735 0 0 0-.04-.247.748.748 0 0 0-.183-.568c-.063-.308-.297-.577-.705-.58l-11.107-.092a.684.684 0 0 0-.547.234.672.672 0 0 0-.286.58l.021 4.391c4.27-.032 8.54-.062 12.811-.093z" data-color="1" class="icon1"></path><path d="M103.162 80.754a.793.793 0 0 0 .017-.173l-.303-18.49c-.001-.042-.009-.079-.015-.117a.76.76 0 0 0-.001-.329l-6.45.228c-.012.053-.024.106-.024.167l-.109 18.69c0 .072.01.137.025.199l6.86-.175z" data-color="1" class="icon1"></path><path d="M81.345 140.711a.8.8 0 0 0 .26.064c5.588.379 11.183.621 16.78.738l.401-33.986-18.153-.049-.019 32.513c-.001.473.362.712.731.72z" data-color="1" class="icon1"></path><path d="M118.532 100.219c-.002-.404-.269-.636-.577-.701a.672.672 0 0 0-.628-.352l-16.944.16-.079 6.71 18.262.05-.034-5.867z" data-color="1" class="icon1"></path><path d="M117.731 141.4a.752.752 0 0 0 .344-.092c.355-.023.691-.261.688-.717l-.19-33.009-18.288-.05-.401 34.015c5.949.098 11.899.05 17.847-.147z" data-color="1" class="icon1"></path><path d="M98.882 99.34l-17.376.164a.71.71 0 0 0-.472.171.677.677 0 0 0-.398.643l-.003 5.664 18.17.049.079-6.691z" data-color="1" class="icon1"></path><path d="M144.662 96.195h-.392l-7.5.085-.409 13.149-.017.551h1.501l34.239-.11 1.501-.005 6.415-.021-14.924-56.47-57.653-.445 36.093 41.857 1.146 1.409z" data-color="2" class="icon2"></path><path d="M53.225 96.279l9.77.158 14.978-.032-.1 45.778a.674.674 0 0 0 .374.633c.101.24.318.429.658.434l40.627.597a.667.667 0 0 0 .625-.343c.344-.035.667-.272.676-.715l.994-46.36c.001-.042-.005-.08-.009-.118l1.223-.003 13.729-.029 7.5-.085h.392l-1.146-1.409-36.093-41.857-6.553-7.638a.677.677 0 0 0-.341-.222.727.727 0 0 0-.679.031l-.131.08a.77.77 0 0 0-.26.272.74.74 0 0 0-.224.171l-6.933 7.74-37.914 41.593-1.163 1.324zm67.102.151l-.217 10.133-.012.577-.755 35.21-19.506-.287-1.42-.021-19.04-.28.075-34.287.003-1.495.021-9.578 40.866-.087a.532.532 0 0 0-.015.115zm21.03-1.656l-3.219.007-1.386.003-.943.002-34.925-41.033-.049-6.209 40.522 47.23zM100.205 55.26l33.645 39.53-59.107.126-11.627.025C75.48 81.715 87.842 68.487 100.205 55.26zm-.87-7.507l.049 6.193-38.258 40.933c-.02.021-.034.044-.051.066l-4.017.006 42.277-47.198z" data-color="1" class="icon1"></path></g></g>
</svg>
</g></svg></svg>